<svg width="269" height="271" viewBox="0 0 269 271" fill="none" xmlns="http://www.w3.org/2000/svg">
<path d="M115.528 58.7591C114.613 58.7591 113.811 58.6191 113.12 58.3391C112.439 58.0591 111.897 57.6391 111.496 57.0791C111.104 56.5098 110.889 55.8098 110.852 54.9791C110.843 54.5965 110.838 54.1905 110.838 53.7611C110.838 53.3318 110.843 52.9165 110.852 52.5151C110.889 51.6938 111.104 50.9985 111.496 50.4291C111.888 49.8598 112.429 49.4258 113.12 49.1271C113.811 48.8285 114.613 48.6791 115.528 48.6791C116.443 48.6791 117.245 48.8285 117.936 49.1271C118.627 49.4258 119.168 49.8598 119.56 50.4291C119.961 50.9985 120.176 51.6938 120.204 52.5151C120.223 52.9165 120.232 53.3318 120.232 53.7611C120.232 54.1905 120.223 54.5965 120.204 54.9791C120.167 55.8098 119.947 56.5098 119.546 57.0791C119.154 57.6391 118.613 58.0591 117.922 58.3391C117.241 58.6191 116.443 58.7591 115.528 58.7591ZM115.528 56.0291C115.836 56.0291 116.083 55.9405 116.27 55.7631C116.457 55.5765 116.555 55.2871 116.564 54.8951C116.583 54.4938 116.592 54.0971 116.592 53.7051C116.592 53.3131 116.583 52.9258 116.564 52.5431C116.555 52.2818 116.503 52.0671 116.41 51.8991C116.326 51.7311 116.209 51.6098 116.06 51.5351C115.911 51.4511 115.733 51.4091 115.528 51.4091C115.332 51.4091 115.155 51.4511 114.996 51.5351C114.847 51.6098 114.725 51.7311 114.632 51.8991C114.548 52.0671 114.501 52.2818 114.492 52.5431C114.483 52.9258 114.478 53.3131 114.478 53.7051C114.478 54.0971 114.483 54.4938 114.492 54.8951C114.511 55.2871 114.609 55.5765 114.786 55.7631C114.973 55.9405 115.22 56.0291 115.528 56.0291ZM121.873 58.6191C121.77 58.6191 121.681 58.5818 121.607 58.5071C121.532 58.4325 121.495 58.3438 121.495 58.2411V49.1971C121.495 49.0945 121.532 49.0058 121.607 48.9311C121.681 48.8565 121.77 48.8191 121.873 48.8191H128.929C129.031 48.8191 129.12 48.8565 129.195 48.9311C129.269 49.0058 129.307 49.0945 129.307 49.1971V51.3251C129.307 51.4278 129.269 51.5165 129.195 51.5911C129.12 51.6658 129.031 51.7031 128.929 51.7031H124.925V52.7391H128.649C128.751 52.7391 128.84 52.7765 128.915 52.8511C128.989 52.9258 129.027 53.0145 129.027 53.1171V55.2311C129.027 55.3338 128.989 55.4225 128.915 55.4971C128.84 55.5718 128.751 55.6091 128.649 55.6091H124.925V58.2411C124.925 58.3438 124.887 58.4325 124.813 58.5071C124.738 58.5818 124.649 58.6191 124.547 58.6191H121.873ZM133.33 58.6191C133.227 58.6191 133.138 58.5818 133.064 58.5071C132.989 58.4325 132.952 58.3438 132.952 58.2411V49.1971C132.952 49.0945 132.989 49.0058 133.064 48.9311C133.138 48.8565 133.227 48.8191 133.33 48.8191H137.572C138.421 48.8191 139.158 48.9451 139.784 49.1971C140.418 49.4398 140.908 49.8178 141.254 50.3311C141.608 50.8351 141.786 51.4745 141.786 52.2491C141.786 53.0238 141.608 53.6585 141.254 54.1531C140.908 54.6385 140.418 54.9978 139.784 55.2311C139.158 55.4551 138.421 55.5671 137.572 55.5671H136.592V58.2411C136.592 58.3438 136.554 58.4325 136.48 58.5071C136.405 58.5818 136.316 58.6191 136.214 58.6191H133.33ZM136.522 52.9771H137.502C137.651 52.9771 137.796 52.9211 137.936 52.8091C138.076 52.6878 138.146 52.4918 138.146 52.2211C138.146 52.0438 138.099 51.8665 138.006 51.6891C137.922 51.5118 137.754 51.4231 137.502 51.4231H136.522V52.9771ZM143.201 58.6191C143.098 58.6191 143.01 58.5818 142.935 58.5071C142.86 58.4325 142.823 58.3438 142.823 58.2411V49.1971C142.823 49.0945 142.86 49.0058 142.935 48.9311C143.01 48.8565 143.098 48.8191 143.201 48.8191H146.057C146.16 48.8191 146.248 48.8565 146.323 48.9311C146.398 49.0058 146.435 49.0945 146.435 49.1971V58.2411C146.435 58.3438 146.398 58.4325 146.323 58.5071C146.248 58.5818 146.16 58.6191 146.057 58.6191H143.201ZM152.415 58.7591C151.519 58.7591 150.726 58.6285 150.035 58.3671C149.344 58.1058 148.794 57.6951 148.383 57.1351C147.982 56.5751 147.762 55.8518 147.725 54.9651C147.716 54.5825 147.711 54.1718 147.711 53.7331C147.711 53.2945 147.716 52.8745 147.725 52.4731C147.762 51.6051 147.986 50.8911 148.397 50.3311C148.817 49.7711 149.372 49.3558 150.063 49.0851C150.763 48.8145 151.547 48.6791 152.415 48.6791C153.012 48.6791 153.586 48.7491 154.137 48.8891C154.697 49.0198 155.201 49.2298 155.649 49.5191C156.097 49.8085 156.452 50.1818 156.713 50.6391C156.984 51.0871 157.124 51.6285 157.133 52.2631C157.133 52.3471 157.1 52.4218 157.035 52.4871C156.979 52.5431 156.909 52.5711 156.825 52.5711H153.969C153.82 52.5711 153.708 52.5431 153.633 52.4871C153.568 52.4218 153.507 52.3145 153.451 52.1651C153.348 51.8665 153.208 51.6658 153.031 51.5631C152.854 51.4605 152.644 51.4091 152.401 51.4091C152.093 51.4091 151.846 51.4931 151.659 51.6611C151.482 51.8198 151.384 52.1138 151.365 52.5431C151.337 53.3085 151.337 54.0925 151.365 54.8951C151.384 55.3245 151.482 55.6231 151.659 55.7911C151.846 55.9498 152.093 56.0291 152.401 56.0291C152.644 56.0291 152.854 55.9731 153.031 55.8611C153.218 55.7491 153.358 55.5531 153.451 55.2731C153.498 55.1145 153.558 55.0071 153.633 54.9511C153.708 54.8951 153.82 54.8671 153.969 54.8671H156.825C156.909 54.8671 156.979 54.8998 157.035 54.9651C157.1 55.0211 157.133 55.0911 157.133 55.1751C157.124 55.8098 156.984 56.3558 156.713 56.8131C156.452 57.2611 156.097 57.6298 155.649 57.9191C155.201 58.2085 154.697 58.4231 154.137 58.5631C153.586 58.6938 153.012 58.7591 152.415 58.7591ZM160.793 58.6191C160.69 58.6191 160.601 58.5818 160.527 58.5071C160.452 58.4325 160.415 58.3438 160.415 58.2411V51.8291H158.091C157.988 51.8291 157.899 51.7918 157.825 51.7171C157.75 51.6425 157.713 51.5538 157.713 51.4511V49.1971C157.713 49.0945 157.75 49.0058 157.825 48.9311C157.899 48.8565 157.988 48.8191 158.091 48.8191H166.295C166.397 48.8191 166.486 48.8565 166.561 48.9311C166.635 49.0058 166.673 49.0945 166.673 49.1971V51.4511C166.673 51.5538 166.635 51.6425 166.561 51.7171C166.486 51.7918 166.397 51.8291 166.295 51.8291H163.971V58.2411C163.971 58.3438 163.933 58.4325 163.859 58.5071C163.784 58.5818 163.695 58.6191 163.593 58.6191H160.793ZM172.144 58.7591C171.248 58.7591 170.455 58.6238 169.764 58.3531C169.083 58.0825 168.551 57.6625 168.168 57.0931C167.786 56.5238 167.594 55.8005 167.594 54.9231V49.1971C167.594 49.0945 167.632 49.0058 167.706 48.9311C167.781 48.8565 167.87 48.8191 167.972 48.8191H170.716C170.819 48.8191 170.908 48.8565 170.982 48.9311C171.057 49.0058 171.094 49.0945 171.094 49.1971V54.8671C171.094 55.2125 171.178 55.4785 171.346 55.6651C171.524 55.8518 171.785 55.9451 172.13 55.9451C172.476 55.9451 172.732 55.8518 172.9 55.6651C173.078 55.4785 173.166 55.2125 173.166 54.8671V49.1971C173.166 49.0945 173.204 49.0058 173.278 48.9311C173.353 48.8565 173.442 48.8191 173.544 48.8191H176.288C176.391 48.8191 176.48 48.8565 176.554 48.9311C176.629 49.0058 176.666 49.0945 176.666 49.1971V54.9231C176.666 55.8005 176.475 56.5238 176.092 57.0931C175.71 57.6625 175.178 58.0825 174.496 58.3531C173.815 58.6238 173.031 58.7591 172.144 58.7591ZM178.502 58.6191C178.399 58.6191 178.31 58.5818 178.236 58.5071C178.161 58.4325 178.124 58.3438 178.124 58.2411V49.1971C178.124 49.0945 178.161 49.0058 178.236 48.9311C178.31 48.8565 178.399 48.8191 178.502 48.8191H182.646C183.99 48.8191 185.04 49.1225 185.796 49.7291C186.552 50.3358 186.93 51.1665 186.93 52.2211C186.93 52.8465 186.785 53.3925 186.496 53.8591C186.216 54.3165 185.856 54.6851 185.418 54.9651L187.14 58.1571C187.168 58.2131 187.182 58.2645 187.182 58.3111C187.182 58.3951 187.149 58.4698 187.084 58.5351C187.028 58.5911 186.958 58.6191 186.874 58.6191H184.004C183.817 58.6191 183.677 58.5725 183.584 58.4791C183.49 58.3858 183.43 58.3065 183.402 58.2411L182.198 55.5671H181.624V58.2411C181.624 58.3438 181.586 58.4325 181.512 58.5071C181.437 58.5818 181.348 58.6191 181.246 58.6191H178.502ZM181.624 52.9071H182.646C182.86 52.9071 183.019 52.8371 183.122 52.6971C183.234 52.5478 183.29 52.3798 183.29 52.1931C183.29 52.0065 183.238 51.8338 183.136 51.6751C183.042 51.5071 182.879 51.4231 182.646 51.4231H181.624V52.9071ZM188.605 58.6191C188.502 58.6191 188.414 58.5818 188.339 58.5071C188.264 58.4325 188.227 58.3438 188.227 58.2411V49.1971C188.227 49.0945 188.264 49.0058 188.339 48.9311C188.414 48.8565 188.502 48.8191 188.605 48.8191H195.787C195.89 48.8191 195.978 48.8565 196.053 48.9311C196.128 49.0058 196.165 49.0945 196.165 49.1971V51.1711C196.165 51.2738 196.128 51.3625 196.053 51.4371C195.978 51.5118 195.89 51.5491 195.787 51.5491H191.587V52.4311H195.479C195.582 52.4311 195.67 52.4685 195.745 52.5431C195.82 52.6178 195.857 52.7065 195.857 52.8091V54.6291C195.857 54.7318 195.82 54.8205 195.745 54.8951C195.67 54.9698 195.582 55.0071 195.479 55.0071H191.587V55.8891H195.899C196.002 55.8891 196.09 55.9265 196.165 56.0011C196.24 56.0758 196.277 56.1645 196.277 56.2671V58.2411C196.277 58.3438 196.24 58.4325 196.165 58.5071C196.09 58.5818 196.002 58.6191 195.899 58.6191H188.605ZM201.653 58.7591C200.617 58.7591 199.763 58.6191 199.091 58.3391C198.419 58.0591 197.915 57.6905 197.579 57.2331C197.243 56.7758 197.066 56.2905 197.047 55.7771C197.047 55.6931 197.075 55.6231 197.131 55.5671C197.196 55.5018 197.271 55.4691 197.355 55.4691H200.015C200.164 55.4691 200.276 55.4925 200.351 55.5391C200.435 55.5765 200.524 55.6325 200.617 55.7071C200.71 55.7725 200.804 55.8331 200.897 55.8891C201 55.9358 201.112 55.9731 201.233 56.0011C201.364 56.0198 201.504 56.0291 201.653 56.0291C201.97 56.0291 202.222 55.9965 202.409 55.9311C202.605 55.8565 202.703 55.7585 202.703 55.6371C202.703 55.5251 202.647 55.4318 202.535 55.3571C202.432 55.2825 202.25 55.2171 201.989 55.1611C201.728 55.0958 201.364 55.0351 200.897 54.9791C200.16 54.8765 199.52 54.7038 198.979 54.4611C198.438 54.2185 198.018 53.8871 197.719 53.4671C197.43 53.0378 197.285 52.5151 197.285 51.8991C197.285 51.2645 197.462 50.7045 197.817 50.2191C198.181 49.7338 198.68 49.3558 199.315 49.0851C199.959 48.8145 200.706 48.6791 201.555 48.6791C202.255 48.6791 202.876 48.7725 203.417 48.9591C203.958 49.1365 204.416 49.3745 204.789 49.6731C205.162 49.9625 205.447 50.2751 205.643 50.6111C205.839 50.9471 205.942 51.2691 205.951 51.5771C205.951 51.6611 205.918 51.7358 205.853 51.8011C205.797 51.8571 205.732 51.8851 205.657 51.8851H202.857C202.726 51.8851 202.619 51.8665 202.535 51.8291C202.46 51.7918 202.381 51.7358 202.297 51.6611C202.25 51.6145 202.162 51.5631 202.031 51.5071C201.91 51.4418 201.751 51.4091 201.555 51.4091C201.322 51.4091 201.149 51.4465 201.037 51.5211C200.934 51.5865 200.883 51.6798 200.883 51.8011C200.883 51.8851 200.925 51.9645 201.009 52.0391C201.093 52.1138 201.247 52.1791 201.471 52.2351C201.695 52.2911 202.017 52.3471 202.437 52.4031C203.37 52.5151 204.117 52.6971 204.677 52.9491C205.246 53.1918 205.657 53.5185 205.909 53.9291C206.17 54.3398 206.301 54.8485 206.301 55.4551C206.301 56.1365 206.096 56.7245 205.685 57.2191C205.284 57.7138 204.733 58.0965 204.033 58.3671C203.333 58.6285 202.54 58.7591 201.653 58.7591Z" fill="#A7A7A7"/>
<path d="M67.0084 58.6191C66.8217 58.6191 66.6724 58.5631 66.5604 58.4511C66.4484 58.3298 66.383 58.2085 66.3644 58.0871L65.0764 49.1691C65.0764 49.1598 65.0764 49.1551 65.0764 49.1551C65.0764 49.1458 65.0764 49.1365 65.0764 49.1271C65.0764 49.0431 65.1044 48.9731 65.1604 48.9171C65.2257 48.8518 65.3004 48.8191 65.3844 48.8191H67.9884C68.2964 48.8191 68.4644 48.9451 68.4924 49.1971L68.9684 53.1451L69.5424 51.3951C69.561 51.3298 69.603 51.2458 69.6684 51.1431C69.7337 51.0405 69.8504 50.9891 70.0184 50.9891H71.4464C71.6144 50.9891 71.731 51.0405 71.7964 51.1431C71.8617 51.2458 71.9037 51.3298 71.9224 51.3951L72.4964 53.1311L72.9724 49.1971C73.0004 48.9451 73.1684 48.8191 73.4764 48.8191H76.0804C76.1644 48.8191 76.2344 48.8518 76.2904 48.9171C76.3557 48.9731 76.3884 49.0431 76.3884 49.1271C76.3884 49.1365 76.3884 49.1458 76.3884 49.1551C76.3884 49.1551 76.3884 49.1598 76.3884 49.1691L75.1004 58.0871C75.091 58.2085 75.0257 58.3298 74.9044 58.4511C74.7924 58.5631 74.643 58.6191 74.4564 58.6191H72.4544C72.2677 58.6191 72.1277 58.5725 72.0344 58.4791C71.9504 58.3765 71.899 58.2971 71.8804 58.2411L70.7324 55.3711L69.5844 58.2411C69.5657 58.2971 69.5097 58.3765 69.4164 58.4791C69.3324 58.5725 69.197 58.6191 69.0104 58.6191H67.0084ZM76.6148 58.6191C76.5308 58.6191 76.4561 58.5911 76.3908 58.5351C76.3348 58.4698 76.3068 58.3951 76.3068 58.3111C76.3068 58.2738 76.3114 58.2411 76.3208 58.2131L79.4428 49.2811C79.4708 49.1785 79.5361 49.0758 79.6388 48.9731C79.7414 48.8705 79.8861 48.8191 80.0728 48.8191H83.1108C83.2974 48.8191 83.4421 48.8705 83.5448 48.9731C83.6474 49.0758 83.7128 49.1785 83.7408 49.2811L86.8628 58.2131C86.8721 58.2411 86.8768 58.2738 86.8768 58.3111C86.8768 58.3951 86.8441 58.4698 86.7788 58.5351C86.7228 58.5911 86.6528 58.6191 86.5688 58.6191H83.9788C83.8014 58.6191 83.6708 58.5818 83.5868 58.5071C83.5121 58.4231 83.4608 58.3438 83.4328 58.2691L83.0968 57.3451H80.0868L79.7508 58.2691C79.7228 58.3438 79.6714 58.4231 79.5968 58.5071C79.5221 58.5818 79.3914 58.6191 79.2048 58.6191H76.6148ZM80.8008 54.6151H82.3828L81.5848 52.0111L80.8008 54.6151ZM88.0231 58.6191C87.9205 58.6191 87.8318 58.5818 87.7571 58.5071C87.6825 58.4325 87.6451 58.3438 87.6451 58.2411V49.1971C87.6451 49.0945 87.6825 49.0058 87.7571 48.9311C87.8318 48.8565 87.9205 48.8191 88.0231 48.8191H90.8231C90.9258 48.8191 91.0145 48.8565 91.0891 48.9311C91.1638 49.0058 91.2011 49.0945 91.2011 49.1971V55.7491H95.0791C95.1818 55.7491 95.2705 55.7865 95.3451 55.8611C95.4198 55.9358 95.4571 56.0245 95.4571 56.1271V58.2411C95.4571 58.3438 95.4198 58.4325 95.3451 58.5071C95.2705 58.5818 95.1818 58.6191 95.0791 58.6191H88.0231ZM96.7868 58.6191C96.6841 58.6191 96.5955 58.5818 96.5208 58.5071C96.4461 58.4325 96.4088 58.3438 96.4088 58.2411V49.1971C96.4088 49.0945 96.4461 49.0058 96.5208 48.9311C96.5955 48.8565 96.6841 48.8191 96.7868 48.8191H99.5868C99.6895 48.8191 99.7781 48.8565 99.8528 48.9311C99.9275 49.0058 99.9648 49.0945 99.9648 49.1971V55.7491H103.843C103.945 55.7491 104.034 55.7865 104.109 55.8611C104.183 55.9358 104.221 56.0245 104.221 56.1271V58.2411C104.221 58.3438 104.183 58.4325 104.109 58.5071C104.034 58.5818 103.945 58.6191 103.843 58.6191H96.7868Z" fill="#008080"/>
<path d="M163.673 3.12256H109.355C108.733 3.12256 108.229 3.53919 108.229 4.05316V33.6463C108.229 34.1603 108.733 34.5769 109.355 34.5769H129.64V37.9271H125.808C125.186 37.9271 124.682 38.3437 124.682 38.8577C124.682 39.3716 125.186 39.7883 125.808 39.7883H147.22C147.842 39.7883 148.347 39.3716 148.347 38.8577C148.347 38.3437 147.842 37.9271 147.22 37.9271H143.388V34.5769H163.673C164.295 34.5769 164.8 34.1603 164.8 33.6463V4.05316C164.8 3.53919 164.295 3.12256 163.673 3.12256ZM141.135 37.9271H131.894V34.5769H141.135V37.9271ZM162.546 32.7157H110.482V4.98376H162.546V32.7157Z" fill="#008080"/>
<g clip-path="url(#clip0_18_89)">
<path d="M158.575 6.74658H149.552C148.306 6.74658 147.296 7.24103 147.296 7.85092C147.296 8.46081 148.306 8.95526 149.552 8.95526H156.319V12.2683C156.319 12.8782 157.329 13.3726 158.575 13.3726C159.82 13.3726 160.83 12.8782 160.83 12.2683V7.85092C160.83 7.24103 159.82 6.74658 158.575 6.74658Z" fill="#008080"/>
<path d="M151.363 18.9127C150.937 18.6321 150.266 18.4667 149.552 18.4667C148.838 18.4667 148.167 18.6321 147.741 18.9127L140.593 23.6257L128.85 15.321C128.429 15.023 127.736 14.8452 126.996 14.8452C126.255 14.8452 125.562 15.023 125.141 15.321L111.607 24.8919C111.346 25.0765 111.206 25.2959 111.206 25.5205V29.9378C111.206 30.5477 112.216 31.0422 113.462 31.0422H122.484C123.73 31.0422 124.74 30.5477 124.74 29.9378C124.74 29.3279 123.73 28.8335 122.484 28.8335H115.717V25.8654L126.996 17.8897L138.675 26.1491C139.089 26.4417 139.765 26.6188 140.492 26.6247C141.223 26.6325 141.907 26.4646 142.34 26.1788L149.552 21.4235L156.319 25.8856V28.8335H149.552C148.306 28.8335 147.296 29.3279 147.296 29.9378C147.296 30.5477 148.306 31.0422 149.552 31.0422H158.574C159.82 31.0422 160.83 30.5477 160.83 29.9378V25.5205C160.83 25.2833 160.674 25.0525 160.385 24.8621L151.363 18.9127Z" fill="#008080"/>
<path d="M113.462 13.3726C114.707 13.3726 115.717 12.8782 115.717 12.2683V8.95526H122.484C123.73 8.95526 124.74 8.46081 124.74 7.85092C124.74 7.24103 123.73 6.74658 122.484 6.74658H113.462C112.216 6.74658 111.206 7.24103 111.206 7.85092V12.2683C111.206 12.8782 112.216 13.3726 113.462 13.3726Z" fill="#008080"/>
<path d="M140.53 17.79C144.675 17.79 148.048 16.1386 148.048 14.1089C148.048 12.0791 144.675 10.4277 140.53 10.4277C136.384 10.4277 133.011 12.0791 133.011 14.1089C133.011 16.1386 136.384 17.79 140.53 17.79ZM140.53 12.6364C142.188 12.6364 143.537 13.297 143.537 14.1089C143.537 14.9208 142.188 15.5813 140.53 15.5813C138.871 15.5813 137.522 14.9208 137.522 14.1089C137.522 13.297 138.871 12.6364 140.53 12.6364Z" fill="#008080"/>
</g>
<path d="M242 167H266V143H242V167ZM244 145H264V165H255V152.414L259.293 156.707L260.707 155.293L254 148.586L247.293 155.293L248.707 156.707L253 152.414V165H244V145Z" fill="black"/>
<path d="M268 113H212C211.448 113 211 113.447 211 114V158C211 158.553 211.448 159 212 159H239V140H241.586L234.974 133.389L218.661 147.751C218.471 147.918 218.235 148 218 148C217.723 148 217.447 147.886 217.249 147.661C216.884 147.246 216.924 146.614 217.339 146.249L234.356 131.267C234.752 130.919 235.35 130.938 235.724 131.311L240.467 136.054L250.261 125.327C250.44 125.131 250.69 125.014 250.955 125.002C251.219 124.996 251.479 125.085 251.675 125.264L263.675 136.264C264.082 136.637 264.11 137.27 263.737 137.677C263.364 138.083 262.731 138.112 262.324 137.739L251.063 127.414L241.882 137.468L244.414 140H269V114C269 113.447 268.552 113 268 113ZM227 130.138C223.929 130.138 221.431 127.64 221.431 124.57C221.431 121.498 223.929 119 227 119C230.071 119 232.569 121.498 232.569 124.569C232.569 127.64 230.071 130.138 227 130.138Z" fill="black"/>
<path d="M150.585 252.542C150.315 252.51 150.042 252.489 149.764 252.489C149.273 252.489 148.795 252.542 148.333 252.64C143.738 253.234 139.506 256.192 136.271 261.132L135.805 261.843L136.164 262.391C139.798 267.942 144.693 271 149.947 271C155.2 271 160.095 267.942 163.73 262.391L164.196 261.68L163.837 261.132C160.325 255.768 155.636 252.741 150.585 252.542ZM154.673 259.397C154.673 262.104 152.471 264.306 149.764 264.306C147.057 264.306 144.855 262.104 144.855 259.397C144.855 257.054 146.507 255.095 148.707 254.609C149.153 254.556 149.602 254.522 150.055 254.522C150.08 254.522 150.105 254.524 150.13 254.525C152.663 254.716 154.673 256.815 154.673 259.397ZM149.947 269C145.56 269 141.409 266.463 138.203 261.839C139.762 259.553 141.551 257.77 143.483 256.535C143.083 257.409 142.854 258.376 142.854 259.398C142.854 263.208 145.954 266.307 149.763 266.307C153.572 266.307 156.672 263.207 156.672 259.398C156.672 258.182 156.354 257.041 155.8 256.047C158.004 257.254 160.042 259.154 161.796 261.684C158.577 266.406 154.383 269 149.947 269Z" fill="black"/>
<path d="M164 219H108C107.448 219 107 219.447 107 220V264C107 264.553 107.448 265 108 265H134.32C134.095 264.684 133.871 264.365 133.654 264.034L132.218 261.842L133.761 259.488C135.968 256.117 138.612 253.55 141.534 251.862C141.443 251.815 141.352 251.767 141.275 251.69L130.974 241.389L114.661 255.751C114.471 255.918 114.235 256 114 256C113.723 256 113.447 255.886 113.249 255.661C112.884 255.246 112.924 254.614 113.339 254.249L130.356 239.267C130.752 238.919 131.35 238.938 131.724 239.311L136.467 244.054L146.261 233.327C146.44 233.131 146.69 233.014 146.955 233.002C147.219 232.996 147.479 233.085 147.675 233.264L159.675 244.264C160.082 244.637 160.11 245.27 159.737 245.677C159.364 246.083 158.731 246.112 158.324 245.739L147.063 235.414L137.882 245.468L142.689 250.275C142.92 250.506 142.997 250.818 142.955 251.118C145.2 250.072 147.586 249.522 150.052 249.522C155.705 249.522 160.942 252.381 164.998 257.612V220C165 219.447 164.552 219 164 219ZM123 238.138C119.929 238.138 117.431 235.64 117.431 232.57C117.431 229.498 119.929 227 123 227C126.071 227 128.569 229.498 128.569 232.569C128.569 235.64 126.071 238.138 123 238.138Z" fill="black"/>
<path d="M31 165H55V141H31V165ZM33 143H42V155.586L37.707 151.293L36.293 152.707L43 159.414L49.707 152.707L48.293 151.293L44 155.586V143H53V163H33V143Z" fill="black"/>
<path d="M57 111H1C0.448 111 0 111.447 0 112V156C0 156.553 0.448 157 1 157H28V138H30.586L23.974 131.389L7.661 145.751C7.471 145.918 7.235 146 7 146C6.723 146 6.447 145.886 6.249 145.661C5.884 145.246 5.924 144.614 6.339 144.249L23.356 129.267C23.752 128.919 24.35 128.938 24.724 129.311L29.467 134.054L39.261 123.327C39.44 123.131 39.69 123.014 39.955 123.002C40.219 122.996 40.479 123.085 40.675 123.264L52.675 134.264C53.082 134.637 53.11 135.27 52.737 135.677C52.364 136.083 51.731 136.112 51.324 135.739L40.063 125.414L30.882 135.468L33.414 138H58V112C58 111.447 57.552 111 57 111ZM16 128.138C12.929 128.138 10.431 125.64 10.431 122.57C10.431 119.498 12.929 117 16 117C19.071 117 21.569 119.498 21.569 122.569C21.569 125.64 19.071 128.138 16 128.138Z" fill="black"/>
<defs>
<clipPath id="clip0_18_89">
<rect width="49.6241" height="24.2954" fill="white" transform="translate(111.206 6.74658)"/>
</clipPath>
</defs>
</svg>
