<svg width="35" height="35" viewBox="0 0 35 35" fill="none" xmlns="http://www.w3.org/2000/svg">
<path d="M34.2948 24.4912C33.4877 24.4912 32.8377 25.1453 32.8377 25.9576V33.031H3.66624V25.9576C3.66624 25.1453 3.01624 24.4912 2.2091 24.4912C1.40195 24.4912 0.751953 25.1453 0.751953 25.9576V34.4974C0.751953 35.3097 1.40195 35.9638 2.2091 35.9638H34.2948C35.102 35.9638 35.752 35.3097 35.752 34.4974V25.9576C35.752 25.1453 35.102 24.4912 34.2948 24.4912Z" fill="white"/>
<path d="M17.1802 26.2309C18.0016 27.0647 19.0088 26.6047 19.3159 26.2309L27.6945 17.1592C28.2445 16.5626 28.2088 15.6353 27.6159 15.0818C27.023 14.5283 26.1016 14.5642 25.5588 15.1608L19.7088 21.4938V2.43029C19.7088 1.61801 19.0588 0.963867 18.2516 0.963867C17.4445 0.963867 16.7945 1.61801 16.7945 2.43029V21.5009L10.9445 15.168C10.3945 14.5714 9.47305 14.5426 8.88019 15.0889C8.28733 15.6424 8.25876 16.5697 8.80162 17.1664L17.1802 26.2309V26.2309Z" fill="white"/>
</svg>
