<svg width="30" height="30" viewBox="0 0 30 30" fill="none" xmlns="http://www.w3.org/2000/svg">
<g clip-path="url(#clip0_29_72)">
<path fill-rule="evenodd" clip-rule="evenodd" d="M14.955 0C10.9888 0.000497168 7.18527 1.57627 4.38077 4.38077C1.57627 7.18527 0.000497168 10.9888 0 14.955C0 21.5587 4.3125 27.1556 10.1831 29.175C10.9181 29.2669 11.1919 28.8075 11.1919 28.44V25.8713C7.065 26.79 6.14813 23.8538 6.14813 23.8538C5.505 22.11 4.49625 21.6506 4.49625 21.6506C3.12 20.7337 4.58625 20.7337 4.58625 20.7337C6.05438 20.8256 6.88125 22.2938 6.88125 22.2938C8.2575 24.5869 10.3669 23.9437 11.1937 23.5781C11.2837 22.5694 11.7431 21.9281 12.1106 21.5606C8.80688 21.1931 5.32125 19.9087 5.32125 14.1281C5.32125 12.4781 5.87063 11.1919 6.88125 10.0912C6.7875 9.81562 6.23812 8.2575 7.065 6.23812C7.065 6.23812 8.34937 5.87062 11.1919 7.79812C12.3844 7.43062 13.6706 7.33875 14.955 7.33875C16.2394 7.33875 17.5238 7.5225 18.7163 7.79812C21.5606 5.8725 22.845 6.23812 22.845 6.23812C23.67 8.2575 23.1188 9.81563 23.0269 10.1831C24.0373 11.2839 24.5945 12.7258 24.5869 14.22C24.5869 20.0006 21.0994 21.1931 17.7994 21.5606C18.3488 22.0181 18.8081 22.935 18.8081 24.3112V28.44C18.8081 28.8075 19.0819 29.265 19.8169 29.175C22.7906 28.1714 25.3738 26.2585 27.2011 23.7068C29.0284 21.1551 30.0075 18.0935 30 14.955C29.9081 6.6975 23.2125 0 14.955 0Z" fill="#008080"/>
</g>
<defs>
<clipPath id="clip0_29_72">
<rect width="30" height="30" fill="white"/>
</clipPath>
</defs>
</svg>
