<svg width="35" height="35" viewBox="0 0 35 35" fill="none" xmlns="http://www.w3.org/2000/svg">
<path d="M33.0219 4.62061H1.97815C0.887491 4.62061 0 5.5081 0 6.59875V9.46651C0 10.5573 0.887491 11.4448 1.97815 11.4448H33.0219C34.1125 11.4448 35 10.5573 35 9.46651V6.59875C35 5.5081 34.1125 4.62061 33.0219 4.62061Z" fill="#008080"/>
<path d="M33.0219 14.0879H1.97815C0.887491 14.0879 0 14.9754 0 16.066V18.9339C0 20.0246 0.887491 20.9121 1.97815 20.9121H33.0219C34.1125 20.9121 35 20.0246 35 18.9339V16.066C35 14.9754 34.1125 14.0879 33.0219 14.0879Z" fill="#008080"/>
<path d="M33.0219 23.5547H1.97815C0.887491 23.5547 0 24.4421 0 25.533V28.4007C0 29.4914 0.887491 30.3789 1.97815 30.3789H33.0219C34.1125 30.3789 35 29.4914 35 28.4007V25.533C35 24.4421 34.1125 23.5547 33.0219 23.5547Z" fill="#008080"/>
</svg>
