<svg width="40" height="40" viewBox="0 0 40 40" fill="none" xmlns="http://www.w3.org/2000/svg">
<path d="M29.3916 25.8261C20.3347 25.8261 14.5422 20.1509 14.5422 11.0772C14.5422 9.20221 14.9943 6.52364 15.5802 5.13414C15.7476 4.74907 15.7644 4.51471 15.7644 4.34728C15.7644 3.89528 15.4295 3.39307 14.7934 3.39307C14.5925 3.39307 14.2074 3.44328 13.8392 3.57721C7.64495 6.05492 3.49316 12.7179 3.49316 19.7324C3.49316 29.5761 10.9932 36.6074 20.8034 36.6074C28.0021 36.6074 34.2632 32.2379 36.3392 26.7804C36.4732 26.3953 36.5064 25.9935 36.5064 25.8429C36.5064 25.2234 36.0042 24.8049 35.5354 24.8049C35.3177 24.8049 35.1337 24.8551 34.8158 24.9556C33.5267 25.3741 31.4507 25.8261 29.3916 25.8261Z" fill="black"/>
</svg>
