<svg width="30" height="30" viewBox="0 0 30 30" fill="none" xmlns="http://www.w3.org/2000/svg">
<circle cx="15" cy="15" r="15" fill="#008080"/>
<g clip-path="url(#clip0_28_42)">
<path d="M24.4998 21.7494H23.9998V12.0819L24.3058 12.2109C24.3688 12.2372 24.4348 12.2499 24.4998 12.2499C24.6944 12.2499 24.8801 12.1352 24.9608 11.9438C25.0678 11.6895 24.9484 11.3965 24.6938 11.2892L15.1939 7.28925C15.0699 7.23757 14.9302 7.23757 14.8063 7.28925L5.30636 11.2892C5.05137 11.3965 4.93238 11.6895 5.03937 11.9438C5.14672 12.1992 5.44171 12.3165 5.69402 12.2108L6.00003 12.0818V21.7494H5.49999C5.22367 21.7494 5 21.9731 5 22.2494C5 22.5257 5.22367 22.7494 5.49999 22.7494H24.4998C24.7761 22.7494 24.9998 22.5257 24.9998 22.2494C24.9998 21.9731 24.7761 21.7494 24.4998 21.7494ZM20.9998 21.7494H8.99995V19.7495H20.9998V21.7494ZM20.9998 18.7498H8.99995V16.7498H20.9998V18.7498ZM20.9998 15.7499H8.99995V13.7499H20.9998V15.7499ZM22.9998 21.7494H21.9998V13.7495C21.9998 13.1975 21.5521 12.7499 20.9998 12.7499H8.99995C8.44762 12.7499 7.99996 13.1975 7.99996 13.7499V21.7498H6.99998V11.6609L14.9999 8.29228L22.9998 11.6606V21.7494Z" fill="white"/>
</g>
<defs>
<clipPath id="clip0_28_42">
<rect width="20" height="20" fill="white" transform="translate(5 5)"/>
</clipPath>
</defs>
</svg>
