<svg width="30" height="30" viewBox="0 0 30 30" fill="none" xmlns="http://www.w3.org/2000/svg">
<circle cx="15" cy="15" r="15" fill="#008080"/>
<g clip-path="url(#clip0_23_20)">
<path d="M8.07929 18.5512L6.24418 20.3863L9.61378 23.7559L11.4488 21.9208C11.8244 22.1137 12.2149 22.2755 12.6173 22.4046V25H17.3827V22.4046C17.7851 22.2754 18.1756 22.1137 18.5511 21.9208L20.3861 23.7559L23.7558 20.3863L21.9206 18.5511C22.1135 18.1756 22.2752 17.7851 22.4044 17.3827H25V12.6173H22.4045C22.2753 12.2149 22.1136 11.8244 21.9207 11.4489L23.7559 9.61369L20.3863 6.24409L18.5512 8.0792C18.1756 7.88631 17.7851 7.72453 17.3828 7.59538V5H12.6174V7.59538C12.215 7.72462 11.8244 7.88631 11.4489 8.0792L9.61369 6.24418L6.24418 9.61378L8.07929 11.4489C7.8864 11.8244 7.72462 12.215 7.59547 12.6174H5V17.3827H7.59538C7.72462 17.785 7.88631 18.1756 8.07929 18.5512ZM6.33333 13.9507H8.62027L8.74578 13.4444C8.90027 12.8208 9.14649 12.2263 9.47742 11.6775L9.74684 11.2308L8.12969 9.61378L9.61369 8.12978L11.2308 9.74684L11.6775 9.47742C12.2263 9.14649 12.8208 8.90027 13.4444 8.74578L13.9507 8.62027V6.33333H16.0493V8.62027L16.5556 8.74578C17.1792 8.90036 17.7736 9.14649 18.3224 9.47751L18.7692 9.74693L20.3861 8.12987L21.8701 9.61387L20.2529 11.2309L20.5223 11.6777C20.8532 12.2264 21.0994 12.8208 21.254 13.4444L21.3794 13.9508H23.6667V16.0493H21.3796L21.2541 16.5556C21.0996 17.1793 20.8533 17.7737 20.5225 18.3224L20.2531 18.7692L21.8703 20.3863L20.3862 21.8703L18.7693 20.2532L18.3226 20.5227C17.7739 20.8536 17.1795 21.0997 16.5557 21.2543L16.0495 21.3798V23.6667H13.9508V21.3797L13.4445 21.2542C12.821 21.0997 12.2265 20.8535 11.6777 20.5226L11.2309 20.2532L9.61378 21.8702L8.12978 20.3863L9.74684 18.7692L9.47742 18.3225C9.14649 17.7737 8.90027 17.1792 8.74578 16.5556L8.62027 16.0493H6.33333V13.9507ZM15 18.6222C16.9973 18.6222 18.6222 16.9973 18.6222 15C18.6222 13.0027 16.9973 11.3778 15 11.3778C13.0027 11.3778 11.3778 13.0027 11.3778 15C11.3778 16.9973 13.0027 18.6222 15 18.6222ZM15 12.7111C16.262 12.7111 17.2889 13.7379 17.2889 15C17.2889 16.2621 16.262 17.2889 15 17.2889C13.7379 17.2889 12.7111 16.2621 12.7111 15C12.7111 13.7379 13.7379 12.7111 15 12.7111Z" fill="white"/>
</g>
<defs>
<clipPath id="clip0_23_20">
<rect width="20" height="20" fill="white" transform="translate(5 5)"/>
</clipPath>
</defs>
</svg>
