<svg width="40" height="40" viewBox="0 0 40 40" fill="none" xmlns="http://www.w3.org/2000/svg">
<path d="M21.456 3.29244C21.456 2.50558 20.7864 1.83594 19.9996 1.83594C19.2127 1.83594 18.5431 2.50558 18.5431 3.29244V6.80801C18.5431 7.59487 19.2127 8.26451 19.9996 8.26451C20.7864 8.26451 21.456 7.59487 21.456 6.80801V3.29244ZM28.2697 9.67072C27.7172 10.2399 27.7172 11.1774 28.2697 11.7299C28.8389 12.2991 29.7597 12.3159 30.3455 11.7299L32.84 9.23551C33.4093 8.66629 33.4093 7.72879 32.84 7.15958C32.2875 6.60715 31.35 6.60715 30.7808 7.15958L28.2697 9.67072ZM9.6536 11.7299C10.206 12.2991 11.1435 12.2991 11.7127 11.7299C12.2652 11.1942 12.2652 10.2232 11.7295 9.67072L9.2351 7.15958C8.69938 6.62387 7.7451 6.60715 7.17588 7.15958C6.62346 7.71201 6.62346 8.66629 7.15917 9.21879L9.6536 11.7299ZM19.9996 11.462C15.3288 11.462 11.4616 15.3292 11.4616 20C11.4616 24.6707 15.3288 28.5547 19.9996 28.5547C24.6536 28.5547 28.5208 24.6707 28.5208 20C28.5208 15.3292 24.6536 11.462 19.9996 11.462ZM36.6569 21.4564C37.4437 21.4564 38.1133 20.7869 38.1133 20C38.1133 19.2131 37.4437 18.5435 36.6569 18.5435H33.1581C32.3712 18.5435 31.7016 19.2131 31.7016 20C31.7016 20.7869 32.3712 21.4564 33.1581 21.4564H36.6569ZM3.34224 18.5435C2.55538 18.5435 1.88574 19.2131 1.88574 20C1.88574 20.7869 2.55538 21.4564 3.34224 21.4564H6.8411C7.62796 21.4564 8.2976 20.7869 8.2976 20C8.2976 19.2131 7.62796 18.5435 6.8411 18.5435H3.34224ZM30.3288 28.2869C29.7597 27.7344 28.8389 27.7344 28.2697 28.2869C27.7172 28.8393 27.7172 29.7768 28.2697 30.346L30.7808 32.8571C31.35 33.4096 32.2875 33.3929 32.84 32.8404C33.4093 32.2879 33.4093 31.3504 32.84 30.7812L30.3288 28.2869ZM7.15917 30.7645C6.58996 31.3169 6.58996 32.2712 7.14246 32.8236C7.69489 33.3761 8.6491 33.3929 9.21831 32.8404L11.7127 30.346C12.2652 29.7935 12.2652 28.856 11.7295 28.2869C11.177 27.7344 10.2228 27.7344 9.6536 28.2869L7.15917 30.7645ZM21.456 33.1919C21.456 32.4051 20.7864 31.7355 19.9996 31.7355C19.2127 31.7355 18.5431 32.4051 18.5431 33.1919V36.7076C18.5431 37.4944 19.2127 38.1641 19.9996 38.1641C20.7864 38.1641 21.456 37.4944 21.456 36.7076V33.1919Z" fill="white"/>
</svg>
